#!OML:ASF E:\inclinewalkrobotboard\Project 1\Capture day 1\Session 1\subject1.ASF
:FULLY-SPECIFIED
:DEGREES
16
root 6.71096 16.6105 35.1051 -170.338 0.257367 178.695
lowerback -8.79103 1.98568 -6.40364
upperback 1.83606 3.32475 0.803051
thorax 6.46914 1.3695 4.91399
lowerneck -6.99998 -0.00365415 -3.33183
upperneck 34.5124 -6.95919 8.44085
head 13.1225 -3.99713 2.65047
rclavicle 1.80894e-014 -1.19271e-015
rhumerus -34.438 -28.3921 -77.5575
rradius 22.0399
rwrist 21.7082
rhand -15.4873 -45.0086
rfingers 7.12502
rthumb 10.6947 -74.7164
lclavicle 1.80894e-014 -1.19271e-015
lhumerus -25.1678 2.62807 90.1285
lradius 14.0218
lwrist -33.7962
lhand -28.1866 -22.8755
lfingers 7.12502
lthumb -1.56613 7.09854
rfemur -5.97061 0.745586 19.531
rtibia 7.36684
rfoot -10.952 -3.32948
rtoes -30.4924
lfemur -9.51088 -10.2 -19.7287
ltibia 12.8933
lfoot -15.465 3.51187
ltoes -62.0068
17
root 6.70937 16.6107 35.1117 -170.338 0.237176 178.593
lowerback -8.75593 1.97479 -6.52469
upperback 1.82446 3.32222 0.788019
thorax 6.43191 1.3659 4.96353
lowerneck -6.92348 -0.0124969 -3.26481
upperneck 34.3932 -6.93084 8.40056
head 13.0476 -3.97725 2.62694
rclavicle -1.30949e-014 -5.1684e-015
rhumerus -34.4302 -28.7309 -77.4319
rradius 21.9467
rwrist 21.9201
rhand -16.693 -44.1975
rfingers 7.12502
rthumb 9.53156 -73.9619
lclavicle -1.30949e-014 -5.1684e-015
lhumerus -25.0978 2.48628 90.0248
lradius 14.0702
lwrist -33.2835
lhand -27.6483 -23.0875
lfingers 7.12502
lthumb -1.04622 6.88968
rfemur -6.02268 0.77044 19.4033
rtibia 7.41742
rfoot -10.9685 -3.38291
rtoes -30.4442
lfemur -9.48694 -10.2856 -19.8565
ltibia 12.8115
lfoot -15.4804 3.43414
ltoes -61.7632
18
root 6.70718 16.6115 35.1156 -170.355 0.220547 178.515
lowerback -8.76204 1.94186 -6.63846
upperback 1.83469 3.29089 0.804991
thorax 6.44394 1.345 5.04238
lowerneck -7.26037 0.091085 -2.98985
upperneck 34.5628 -6.724 8.13948
head 13.1589 -3.86064 2.50053
rclavicle -4.17199e-014 6.36111e-015
rhumerus -34.4222 -28.6239 -77.4622
rradius 21.8859
rwrist 21.5322
rhand -18.5932 -42.6926
rfingers 7.12502
rthumb 7.69779 -72.5325
lclavicle -4.17199e-014 6.36111e-015
lhumerus -25.028 2.64612 89.8582
lradius 14.1993
lwrist -32.6381
lhand -26.6017 -23.3765
lfingers 7.12502
lthumb -0.0354359 6.60325
rfemur -6.02765 0.736736 19.2963
rtibia 7.44164
rfoot -10.9696 -3.37452
rtoes -30.4341
lfemur -9.364 -10.3592 -19.9708
ltibia 12.6152
lfoot -15.4979 3.37047
ltoes -61.4481
19
root 6.70576 16.6123 35.1195 -170.341 0.229591 178.53
lowerback -8.79875 1.94703 -6.64712
upperback 1.81709 3.29974 0.82039
thorax 6.44361 1.34908 5.06614
lowerneck -7.36975 0.142126 -2.84593
upperneck 34.6727 -6.65899 8.03907
head 13.2179 -3.8224 2.44315
rclavicle -3.12589e-014 -5.96354e-016
rhumerus -34.4402 -28.4741 -77.558
rradius 21.7119
rwrist 20.5996
rhand -20.5998 -41.3804
rfingers 7.12502
rthumb 5.76076 -71.2821
lclavicle -3.12589e-014 -5.96354e-016
lhumerus -24.9943 2.48641 89.8002
lradius 14.3429
lwrist -31.9113
lhand -26.0444 -23.0281
lfingers 7.12502
lthumb 0.502904 6.95107
rfemur -6.07176 0.848695 19.3049
rtibia 7.46173
rfoot -10.969 -3.43272
rtoes -29.9246
lfemur -9.26625 -10.3516 -19.9468
ltibia 12.3695
lfoot -15.4763 3.27996
ltoes -61.1646
20
root 6.70419 16.6132 35.1234 -170.296 0.256621 178.624
lowerback -8.84829 2.00291 -6.53113
upperback 1.78847 3.36411 0.812171
thorax 6.43899 1.3862 5.00197
lowerneck -7.36434 0.106067 -2.80359
upperneck 34.7261 -6.76931 8.07959
head 13.2507 -3.86661 2.43618
rclavicle 3.32716e-014 9.93923e-015
rhumerus -34.5033 -28.6039 -77.5251
rradius 21.5425
rwrist 20.3141
rhand -21.4682 -40.8978
rfingers 7.12502
rthumb 4.92224 -70.8206
lclavicle 3.32716e-014 9.93923e-015
lhumerus -24.9483 1.95507 89.8451
lradius 14.5154
lwrist -31.0739
lhand -25.7115 -22.1345
lfingers 7.12502
lthumb 0.824415 7.8436
rfemur -6.16841 0.991594 19.4156
rtibia 7.51853
rfoot -10.9991 -3.50772
rtoes -29.7167
lfemur -9.23898 -10.3132 -19.8108
ltibia 12.1787
lfoot -15.4649 3.18224
ltoes -60.8853
21
root 6.70138 16.6141 35.1296 -170.245 0.253085 178.727
lowerback -8.88618 2.00981 -6.40485
upperback 1.78273 3.35956 0.836702
thorax 6.45998 1.38741 4.95823
lowerneck -7.43779 0.0956442 -2.8168
upperneck 34.784 -6.79993 8.08584
head 13.2957 -3.87994 2.43612
rclavicle 6.31141e-015 1.98785e-016
rhumerus -34.4735 -28.704 -77.4654
rradius 21.439
rwrist 20.4434
rhand -21.5052 -41.0738
rfingers 7.12502
rthumb 4.88655 -70.9974
lclavicle 6.31141e-015 1.98785e-016
lhumerus -24.8746 1.77284 89.803
lradius 14.6608
lwrist -30.5325
lhand -25.4201 -21.7762
lfingers 7.12502
lthumb 1.10583 8.20069
rfemur -6.28865 0.958695 19.5259
rtibia 7.57072
rfoot -11.0335 -3.49183
rtoes -30.3297
lfemur -9.27575 -10.2678 -19.6667
ltibia 12.0846
lfoot -15.415 3.08879
ltoes -60.566
22
root 6.69761 16.6137 35.1376 -170.195 0.208277 178.762
lowerback -8.90463 1.9712 -6.34741
upperback 1.77784 3.30095 0.859887
thorax 6.47441 1.35976 4.94384
lowerneck -7.49949 0.114407 -2.86551
upperneck 34.8342 -6.77333 8.0892
head 13.3305 -3.8731 2.44937
rclavicle -1.1778e-014 2.78299e-015
rhumerus -34.4389 -28.8253 -77.356
rradius 21.4336
rwrist 21
rhand -19.5228 -42.7411
rfingers 7.12502
rthumb 6.80046 -72.6119
lclavicle -1.1778e-014 2.78299e-015
lhumerus -24.7788 1.9183 89.6625
lradius 14.7124
lwrist -30.4666
lhand -25.3529 -21.8884
lfingers 7.12502
lthumb 1.17071 8.08814
rfemur -6.39907 0.840926 19.5435
rtibia 7.58893
rfoot -11.0782 -3.46459
rtoes -31.0009
lfemur -9.32369 -10.2416 -19.6092
ltibia 12.002
lfoot -15.3407 2.98785
ltoes -60.2416
23
root 6.69391 16.6129 35.1422 -170.168 0.165454 178.759
lowerback -8.91834 1.93169 -6.33712
upperback 1.77166 3.24671 0.8756
thorax 6.48227 1.33296 4.94831
lowerneck -7.57654 0.121301 -2.95151
upperneck 34.8958 -6.77618 8.1305
head 13.3789 -3.88036 2.48013
rclavicle -1.45361e-014 -2.98177e-015
rhumerus -34.5634 -28.5879 -77.2743
rradius 21.7048
rwrist 21.5772
rhand -16.2094 -44.8394
rfingers 7.12502
rthumb 9.99816 -74.5819
lclavicle -1.45361e-014 -2.98177e-015
lhumerus -24.6984 2.06373 89.539
lradius 14.7657
lwrist -30.5244
lhand -25.3331 -21.8858
lfingers 7.12502
lthumb 1.18982 8.09065
rfemur -6.4208 0.797008 19.5193
rtibia 7.5576
rfoot -11.0764 -3.46436
rtoes -31.2902
lfemur -9.34754 -10.2277 -19.6172
ltibia 11.9624
lfoot -15.3151 2.8157
ltoes -59.9795
24
root 6.6906 16.6134 35.1446 -170.174 0.122346 178.778
lowerback -8.93236 1.87959 -6.32779
upperback 1.78584 3.17421 0.924121
thorax 6.51257 1.29497 4.98647
lowerneck -7.70587 0.140769 -3.04617
upperneck 34.9645 -6.72212 8.11146
head 13.4346 -3.86551 2.49632
rclavicle -2.98177e-015 -4.57205e-015
rhumerus -34.6987 -27.8433 -77.3417
rradius 22.0604
rwrist 21.3399
rhand -14.9607 -44.834
rfingers 7.12502
rthumb 11.2027 -74.515
lclavicle -2.98177e-015 -4.57205e-015
lhumerus -24.6934 2.08461 89.5043
lradius 14.9105
lwrist -30.4067
lhand -25.4542 -21.7903
lfingers 7.12502
lthumb 1.07291 8.18678
rfemur -6.38178 0.776626 19.5317
rtibia 7.5135
rfoot -11.0399 -3.44481
rtoes -31.222
lfemur -9.34435 -10.2229 -19.6107
ltibia 11.9529
lfoot -15.3339 2.60583
ltoes -59.7677
